<svg width="500" height="331" viewBox="0 0 500 331" fill="none" xmlns="http://www.w3.org/2000/svg">
<path d="M411.067 162.114C411.067 162.114 435.53 164.521 447.922 179.588C447.922 179.588 461.03 162.135 484.554 162.496C490.303 155.606 493.964 147.236 495.11 138.36C496.256 129.484 494.84 120.467 491.027 112.359C487.215 104.252 481.162 97.3864 473.574 92.5633C465.986 87.7402 457.175 85.1575 448.166 85.1159C439.158 85.0743 430.323 87.5755 422.69 92.3284C415.057 97.0813 408.941 103.89 405.052 111.962C401.164 120.035 399.664 129.038 400.727 137.924C401.79 146.811 405.372 155.214 411.056 162.156L411.067 162.114Z" fill="#8BAA36"/>
<path opacity="0.5" d="M411.067 162.114C411.067 162.114 435.53 164.521 447.922 179.588C447.922 179.588 461.03 162.135 484.554 162.496C490.303 155.606 493.964 147.236 495.11 138.36C496.256 129.484 494.84 120.467 491.027 112.359C487.215 104.252 481.162 97.3864 473.574 92.5633C465.986 87.7402 457.175 85.1575 448.166 85.1159C439.158 85.0743 430.323 87.5755 422.69 92.3284C415.057 97.0813 408.941 103.89 405.052 111.962C401.164 120.035 399.664 129.038 400.727 137.924C401.79 146.811 405.372 155.214 411.056 162.156L411.067 162.114Z" fill="#FAFAFA"/>
<path d="M447.105 88.4452L446.283 245.94H450.414L447.105 88.4452Z" fill="#B8B8B8"/>
<path d="M448.347 174.996C448.347 174.996 456.598 160.226 471.466 155.71C471.466 155.71 455.776 159.41 447.984 172.123L448.347 174.996Z" fill="#B8B8B8"/>
<path d="M448.347 133.157C448.347 133.157 456.598 118.387 471.466 113.87C471.466 113.87 455.776 117.56 447.984 130.283L448.347 133.157Z" fill="#B8B8B8"/>
<path d="M448.347 154.055C448.347 154.055 456.598 139.285 471.466 134.768C471.466 134.768 455.776 138.469 447.984 151.182L448.347 154.055Z" fill="#B8B8B8"/>
<path d="M447.119 143.813C447.119 143.813 439.146 129.054 424.801 124.537C424.801 124.537 439.947 128.227 447.514 140.951L447.119 143.813Z" fill="#B8B8B8"/>
<path d="M447.119 164.33C447.119 164.33 439.146 149.56 424.801 145.054C424.801 145.054 439.947 148.743 447.514 161.456L447.119 164.33Z" fill="#B8B8B8"/>
<path d="M10.6721 162.114C10.6721 162.114 35.1359 164.521 47.528 179.588C47.528 179.588 60.6351 162.136 84.1596 162.496C89.9086 155.607 93.5692 147.236 94.7152 138.36C95.8612 129.484 94.4454 120.468 90.6327 112.36C86.82 104.252 80.7673 97.3869 73.1793 92.5637C65.5912 87.7406 56.7801 85.1579 47.7717 85.1163C38.7634 85.0747 29.9284 87.576 22.2956 92.3288C14.6628 97.0817 8.54609 103.891 4.65772 111.963C0.769347 120.035 -0.730721 129.038 0.332169 137.925C1.39506 146.811 4.97718 155.215 10.6615 162.157L10.6721 162.114Z" fill="#8BAA36"/>
<path opacity="0.5" d="M10.6721 162.114C10.6721 162.114 35.1359 164.521 47.528 179.588C47.528 179.588 60.6351 162.136 84.1596 162.496C89.9086 155.607 93.5692 147.236 94.7152 138.36C95.8612 129.484 94.4454 120.468 90.6327 112.36C86.82 104.252 80.7673 97.3869 73.1793 92.5637C65.5912 87.7406 56.7801 85.1579 47.7717 85.1163C38.7634 85.0747 29.9284 87.576 22.2956 92.3288C14.6628 97.0817 8.54609 103.891 4.65772 111.963C0.769347 120.035 -0.730721 129.038 0.332169 137.925C1.39506 146.811 4.97718 155.215 10.6615 162.157L10.6721 162.114Z" fill="#FAFAFA"/>
<path d="M46.7212 88.4456L45.8887 245.94H50.0193L46.7212 88.4456Z" fill="#B8B8B8"/>
<path d="M47.9723 174.997C47.9723 174.997 56.2229 160.227 71.0912 155.711C71.0912 155.711 55.4011 159.411 47.6094 172.124L47.9723 174.997Z" fill="#B8B8B8"/>
<path d="M47.9723 133.158C47.9723 133.158 56.2229 118.388 71.0912 113.871C71.0912 113.871 55.4011 117.561 47.6094 130.284L47.9723 133.158Z" fill="#B8B8B8"/>
<path d="M47.9723 154.056C47.9723 154.056 56.2229 139.286 71.0912 134.769C71.0912 134.769 55.4011 138.47 47.6094 151.183L47.9723 154.056Z" fill="#B8B8B8"/>
<path d="M46.7305 143.814C46.7305 143.814 38.7574 129.055 24.4121 124.538C24.4121 124.538 39.5579 128.228 47.1255 140.951L46.7305 143.814Z" fill="#B8B8B8"/>
<path d="M46.7305 164.33C46.7305 164.33 38.7574 149.561 24.4121 145.054C24.4121 145.054 39.5579 148.744 47.1255 161.457L46.7305 164.33Z" fill="#B8B8B8"/>
<path d="M311.67 177.382C311.67 177.382 331.693 179.344 341.833 191.675C341.833 191.675 352.56 177.393 371.815 177.679C376.518 172.04 379.512 165.189 380.448 157.925C381.383 150.661 380.223 143.282 377.101 136.647C373.979 130.013 369.024 124.396 362.813 120.45C356.603 116.505 349.391 114.393 342.019 114.36C334.647 114.328 327.417 116.376 321.171 120.267C314.926 124.158 309.921 129.731 306.74 136.337C303.559 142.944 302.332 150.312 303.203 157.584C304.074 164.857 307.006 171.733 311.659 177.414L311.67 177.382Z" fill="#8BAA36"/>
<path opacity="0.5" d="M311.67 177.382C311.67 177.382 331.693 179.344 341.833 191.675C341.833 191.675 352.56 177.393 371.815 177.679C376.518 172.04 379.512 165.189 380.448 157.925C381.383 150.661 380.223 143.282 377.101 136.647C373.979 130.013 369.024 124.396 362.813 120.45C356.603 116.505 349.391 114.393 342.019 114.36C334.647 114.328 327.417 116.376 321.171 120.267C314.926 124.158 309.921 129.731 306.74 136.337C303.559 142.944 302.332 150.312 303.203 157.584C304.074 164.857 307.006 171.733 311.659 177.414L311.67 177.382Z" fill="#FAFAFA"/>
<path d="M341.164 117.03L340.491 245.94H343.875L341.164 117.03Z" fill="#B8B8B8"/>
<path d="M342.184 187.878C342.184 187.878 348.951 175.791 361.108 172.091C361.108 172.091 348.3 175.112 341.896 185.524L342.184 187.878Z" fill="#B8B8B8"/>
<path d="M342.184 153.632C342.184 153.632 348.951 141.544 361.108 137.855C361.108 137.855 348.3 140.876 341.896 151.278L342.184 153.632Z" fill="#B8B8B8"/>
<path d="M342.184 170.755C342.184 170.755 348.951 158.667 361.108 154.967C361.108 154.967 348.3 157.989 341.896 168.401L342.184 170.755Z" fill="#B8B8B8"/>
<path d="M341.181 162.358C341.181 162.358 334.66 150.271 322.919 146.581C322.919 146.581 335.311 149.603 341.512 160.004L341.181 162.358Z" fill="#B8B8B8"/>
<path d="M341.181 179.142C341.181 179.142 334.66 167.054 322.919 163.365C322.919 163.365 335.311 166.386 341.512 176.798L341.181 179.142Z" fill="#B8B8B8"/>
<path d="M117.934 177.383C117.934 177.383 137.958 179.344 148.098 191.675C148.098 191.675 158.771 177.393 178.08 177.68C182.783 172.04 185.776 165.189 186.712 157.925C187.648 150.661 186.487 143.282 183.365 136.648C180.243 130.013 175.289 124.396 169.078 120.451C162.867 116.505 155.656 114.393 148.284 114.36C140.912 114.328 133.682 116.376 127.436 120.267C121.19 124.158 116.186 129.731 113.004 136.338C109.823 142.944 108.597 150.312 109.468 157.585C110.339 164.857 113.271 171.734 117.924 177.414L117.934 177.383Z" fill="#8BAA36"/>
<path opacity="0.5" d="M117.934 177.383C117.934 177.383 137.958 179.344 148.098 191.675C148.098 191.675 158.771 177.393 178.08 177.68C182.783 172.04 185.776 165.189 186.712 157.925C187.648 150.661 186.487 143.282 183.365 136.648C180.243 130.013 175.289 124.396 169.078 120.451C162.867 116.505 155.656 114.393 148.284 114.36C140.912 114.328 133.682 116.376 127.436 120.267C121.19 124.158 116.186 129.731 113.004 136.338C109.823 142.944 108.597 150.312 109.468 157.585C110.339 164.857 113.271 171.734 117.924 177.414L117.934 177.383Z" fill="#FAFAFA"/>
<path d="M147.438 117.031L146.766 245.941H150.149L147.438 117.031Z" fill="#B8B8B8"/>
<path d="M148.507 187.879C148.507 187.879 155.274 175.792 167.431 172.091C167.431 172.091 154.623 175.113 148.219 185.525L148.507 187.879Z" fill="#B8B8B8"/>
<path d="M148.507 153.632C148.507 153.632 155.274 141.545 167.431 137.855C167.431 137.855 154.623 140.877 148.219 151.278L148.507 153.632Z" fill="#B8B8B8"/>
<path d="M148.507 170.755C148.507 170.755 155.274 158.668 167.431 154.967C167.431 154.967 154.623 157.989 148.219 168.401L148.507 170.755Z" fill="#B8B8B8"/>
<path d="M147.438 162.358C147.438 162.358 140.927 150.271 129.187 146.634C129.187 146.634 141.579 149.656 147.78 160.057L147.438 162.358Z" fill="#B8B8B8"/>
<path d="M147.437 179.142C147.437 179.142 140.916 167.055 129.175 163.365C129.175 163.365 141.567 166.387 147.768 176.799L147.437 179.142Z" fill="#B8B8B8"/>
<path d="M18.0332 246.502H478.64" stroke="#22252A" stroke-width="1.04742" stroke-miterlimit="10"/>
<path opacity="0.3" d="M143.798 297.67C143.798 300.851 124.127 303.385 99.8444 303.385C75.562 303.385 55.8906 300.83 55.8906 297.67C55.8906 294.51 75.5727 291.955 99.8444 291.955C124.116 291.955 143.798 294.521 143.798 297.67Z" fill="black"/>
<path opacity="0.3" d="M235.814 297.67C235.814 300.851 216.132 303.385 191.86 303.385C167.588 303.385 147.906 300.829 147.906 297.67C147.906 294.51 167.588 291.955 191.86 291.955C216.132 291.955 235.814 294.521 235.814 297.67Z" fill="black"/>
<path opacity="0.3" d="M357.711 297.67C357.711 300.851 338.04 303.385 313.768 303.385C289.496 303.385 269.814 300.83 269.814 297.67C269.814 294.51 289.486 291.955 313.768 291.955C338.051 291.955 357.711 294.521 357.711 297.67Z" fill="black"/>
<path opacity="0.3" d="M459.532 297.67C459.532 300.851 439.85 303.385 415.578 303.385C391.307 303.385 371.582 300.83 371.582 297.67C371.582 294.51 391.264 291.955 415.536 291.955C439.807 291.955 459.532 294.521 459.532 297.67Z" fill="black"/>
<path d="M318.517 130.486C318.517 130.486 316.713 137.908 316.713 139.159C316.712 139.933 316.626 140.705 316.457 141.46C316.457 141.46 312.604 146.051 313.116 147.323C313.739 148.313 314.631 149.107 315.689 149.614C315.689 149.614 317.738 157.036 319.798 157.523C321.914 157.916 324.053 158.171 326.202 158.287L326.971 164.405L337.239 162.878L334.677 153.696L335.744 145.786C335.744 145.786 337.537 142.478 335.744 137.123C333.951 131.769 330.098 131.515 327.526 131.515C324.507 131.325 321.5 130.981 318.517 130.486Z" fill="#FAFAFA" stroke="#22252A" stroke-width="1.04742" stroke-linecap="round" stroke-linejoin="round"/>
<path d="M323.129 126.668C323.129 126.668 314.142 126.403 314.398 128.704C314.654 131.005 323.897 134.006 323.897 134.006C323.897 134.006 320.813 136.041 322.35 138.088C323.887 140.134 327.484 141.915 327.484 141.915C327.484 141.915 326.416 146.252 328.007 146.506C329.597 146.761 330.568 144.46 330.825 143.697C331.081 142.933 333.909 143.188 334.678 145.223C335.112 146.281 335.372 147.402 335.446 148.542C335.446 148.542 338.531 139.36 339.043 135.278C339.556 131.196 328.007 126.668 323.129 126.668Z" fill="#22252A" stroke="#22252A" stroke-width="1.04742" stroke-linecap="round" stroke-linejoin="round"/>
<path d="M328.823 146.634C328.823 146.634 331.929 139.848 333.786 143.188C335.644 146.527 334.854 150.005 333.029 150.376C331.203 150.747 329.677 151.108 329.677 151.108" fill="#FAFAFA"/>
<path d="M328.823 146.634C328.823 146.634 331.929 139.848 333.786 143.188C335.644 146.527 334.854 150.005 333.029 150.376C331.203 150.747 329.677 151.108 329.677 151.108" stroke="#22252A" stroke-width="1.04742" stroke-linecap="round" stroke-linejoin="round"/>
<path d="M316.201 217.45C315.699 218.033 307.47 235.56 306.445 241.423C305.42 247.287 298.749 282.234 298.482 283.76C298.216 285.287 284.116 288.351 283.081 288.606C282.045 288.86 284.148 291.67 287.19 292.433C290.232 293.197 299.005 296.77 301.065 294.724C303.125 292.677 305.943 281.205 306.712 279.933C307.48 278.66 321.932 244.837 321.932 244.837C321.932 244.837 329.34 228.604 330.877 227.067C332.414 225.529 329.052 218.733 327.76 216.687C326.469 214.64 319.798 213.368 316.201 217.45Z" fill="#22252A" stroke="#22252A" stroke-width="1.04742" stroke-linecap="round" stroke-linejoin="round"/>
<path d="M314.662 217.672C314.662 217.672 318.259 234.764 320.052 240.882C321.731 246.02 324.255 250.846 327.524 255.164C329.584 257.974 339.596 282.731 339.596 282.731L341.133 286.559C341.133 286.559 340.62 288.086 337.802 290.121C334.985 292.157 327.011 295.476 329.071 296.25C331.131 297.024 339.339 297.013 343.193 296.759C346.51 296.525 349.62 295.069 351.913 292.677C353.461 290.885 349.351 285.785 349.351 284.767C349.351 283.749 340.364 252.64 339.852 251.103C339.339 249.566 336.767 238.613 336.767 238.613V226.154C336.767 226.154 338.059 223.864 338.059 218.732C338.059 213.601 334.205 212.604 334.205 212.604L313.146 214.65L314.662 217.672Z" fill="#22252A" stroke="#22252A" stroke-width="1.04742" stroke-linecap="round" stroke-linejoin="round"/>
<path d="M312.875 216.177C312.875 216.177 313.398 220.514 314.935 220.768C316.472 221.023 332.386 225.359 339.324 220.259C339.324 220.259 340.605 216.432 339.836 215.414C339.068 214.396 337.264 214.905 328.031 214.905C318.799 214.905 312.875 214.905 312.875 216.177Z" fill="#8BAA36" stroke="#22252A" stroke-width="1.04742" stroke-linecap="round" stroke-linejoin="round"/>
<path d="M336.475 159.05C336.475 159.05 326.975 160.322 322.866 164.351C318.757 168.38 315.17 175.834 313.377 182.715C311.584 189.596 310.292 214.852 312.854 216.125C315.416 217.397 336.987 218.68 340.605 217.185C344.224 215.69 340.349 203.666 340.349 199.075C340.349 194.484 344.458 178.93 343.69 170.267C342.921 161.605 336.475 159.05 336.475 159.05Z" fill="#8BAA36" stroke="#22252A" stroke-width="1.04742" stroke-linecap="round" stroke-linejoin="round"/>
<path d="M302.198 185.557C302.08 175.06 297.768 166.101 292.036 162.231V160.11L276.24 160.269C267.348 160.364 260.229 171.932 260.411 186.034C260.592 200.136 267.882 211.555 276.784 211.481L292.581 211.322V209.201C298.131 205.098 302.251 196.054 302.198 185.557Z" fill="#22252A" stroke="#22252A" stroke-width="1.04742" stroke-linecap="round" stroke-linejoin="round"/>
<path d="M309.285 185.482C309.168 174.455 304.888 165.04 298.868 160.947V158.689L292.101 158.763C282.751 158.859 275.311 170.978 275.471 185.832C275.631 200.687 283.327 212.647 292.677 212.551L299.444 212.477V210.229C305.325 206.009 309.403 196.467 309.285 185.482Z" fill="#FAFAFA" stroke="#22252A" stroke-width="1.04742" stroke-linecap="round" stroke-linejoin="round"/>
<path d="M316.074 185.408C316.234 200.252 308.784 212.382 299.445 212.477C290.105 212.573 282.367 200.613 282.239 185.769C282.111 170.925 289.529 158.795 298.868 158.689C308.208 158.583 315.893 170.554 316.074 185.408Z" fill="#737373" stroke="#22252A" stroke-width="1.04742" stroke-linecap="round" stroke-linejoin="round"/>
<path d="M312.196 184.952C312.271 191.982 308.738 197.729 304.308 197.782C299.879 197.835 296.228 192.151 296.154 185.058C296.079 177.965 299.612 172.335 304.041 172.229C308.471 172.123 312.121 177.912 312.196 184.952Z" fill="#22252A" stroke="#22252A" stroke-width="1.04742" stroke-linecap="round" stroke-linejoin="round"/>
<path d="M437.973 237.818C438.854 231.282 439.228 224.689 439.093 218.096C435.624 219.687 415.387 220.27 413.53 220.312C411.673 220.355 391.436 219.687 387.967 218.096C387.814 224.688 388.171 231.281 389.034 237.818C390.433 246.417 402.729 280.844 403.006 282.509C403.366 284.114 403.833 285.694 404.404 287.238C404.404 287.238 397.413 292.232 394.339 294.172C391.265 296.112 393.507 296.95 396.581 296.95C399.655 296.95 406.08 296.112 408.033 296.112C409.762 296.112 412.772 294.617 413.477 294.257C414.181 294.617 417.191 296.112 418.91 296.112C420.874 296.112 427.299 296.95 430.373 296.95C433.447 296.95 435.71 296.112 432.614 294.172C429.519 292.232 422.549 287.238 422.549 287.238C423.121 285.694 423.588 284.114 423.948 282.509C424.278 280.812 436.574 246.385 437.973 237.818Z" fill="#22252A" stroke="#22252A" stroke-width="1.04742" stroke-linecap="round" stroke-linejoin="round"/>
<path d="M409.301 164.117C409.301 164.117 398.489 167.627 392.907 171.147C387.324 174.667 381.721 193.731 381.721 194.473C381.4 195.801 380.964 197.1 380.418 198.354C380.418 198.354 374.826 197.06 373.715 201.683C372.605 206.306 379.298 212.233 382.841 212.424C386.385 212.614 387.495 211.501 387.495 211.501C387.495 211.501 385.264 215.944 386.193 217.789C387.121 219.633 394.956 226.494 410.422 226.271C425.888 226.048 437.106 223.493 438.739 221.277C440.372 219.061 440.607 214.428 440.607 214.428C440.607 214.428 446.381 212.943 448.43 209.243C450.48 205.542 450.106 201.651 448.985 197.77C447.865 193.89 442.09 182.619 438.184 176.321C434.277 170.023 426.069 166.513 422.173 165.4C418.278 164.287 411.905 164.117 409.301 164.117Z" fill="#8BAA36" stroke="#22252A" stroke-width="1.04742" stroke-linecap="round" stroke-linejoin="round"/>
<path d="M412.578 179.703C414.126 179.194 418.982 174.911 420.85 170.627C421.589 168.987 422.11 167.259 422.398 165.485L422.152 165.411C418.246 164.297 411.906 164.117 409.344 164.117C409.344 164.117 407.081 164.849 404.093 165.983C404.111 168.275 404.545 170.545 405.374 172.684C407.06 176.968 411.073 180.223 412.578 179.703Z" fill="#FAFAFA" stroke="#22252A" stroke-width="1.04742" stroke-linecap="round" stroke-linejoin="round"/>
<path d="M430.35 188.355C430.35 188.355 434.822 212.053 439.892 214.491" stroke="#22252A" stroke-width="1.04742" stroke-linecap="round" stroke-linejoin="round"/>
<path d="M387.497 211.502C387.497 211.502 393.09 190.582 393.464 188.546" stroke="#22252A" stroke-width="1.04742" stroke-linecap="round" stroke-linejoin="round"/>
<path d="M437.572 199.064C437.572 199.064 434.477 199.753 434.477 201.98" stroke="#22252A" stroke-width="1.04742" stroke-linecap="round" stroke-linejoin="round"/>
<path d="M384.99 199.404C384.99 199.404 388.438 201.63 388.096 205.055" stroke="#22252A" stroke-width="1.04742" stroke-linecap="round" stroke-linejoin="round"/>
<path d="M408.086 296.132C409.816 296.132 412.825 294.637 413.53 294.277C414.234 294.637 417.244 296.132 418.963 296.132C420.927 296.132 427.352 296.97 430.426 296.97C433.5 296.97 435.763 296.132 432.668 294.192C429.989 292.506 424.374 288.519 422.944 287.502C419.646 290.492 413.124 289.749 413.124 289.749C411.803 289.552 410.495 289.275 409.207 288.922C407.254 288.36 404.457 287.258 404.457 287.258C404.457 287.258 397.466 292.252 394.392 294.192C391.318 296.132 393.56 296.97 396.634 296.97C399.708 296.97 406.133 296.132 408.086 296.132Z" fill="#8BAA36" stroke="#22252A" stroke-width="1.04742" stroke-linecap="round" stroke-linejoin="round"/>
<path d="M413.117 287.3V238.888" stroke="#FAFAFA" stroke-width="1.04742" stroke-linecap="round" stroke-linejoin="round"/>
<path d="M413.523 294.223L413.117 289.696V287.3" stroke="#22252A" stroke-width="1.04742" stroke-linecap="round" stroke-linejoin="round"/>
<path d="M409.2 237.223H417.301" stroke="#FAFAFA" stroke-width="1.04742" stroke-linecap="round" stroke-linejoin="round"/>
<path d="M398.614 136.338C398.614 136.338 392.807 139.794 393.672 142.827C394.536 145.859 397.162 146.442 396.586 148.128C396.009 149.814 393.992 150.874 396.287 151.935C397.594 152.516 398.961 152.953 400.364 153.239C400.364 153.239 402.499 160.597 406.171 161.891C409.842 163.184 416.204 162.325 420.708 161.753C422.229 161.605 423.67 161 424.837 160.019C426.003 159.038 426.842 157.727 427.24 156.261C427.678 154.681 425.351 156.557 424.187 154.819C423.024 153.08 424.775 148.616 426.077 144.714C427.379 140.812 423.462 133.454 418.381 131.005C413.3 128.555 403.598 129.838 398.614 136.338Z" fill="#22252A" stroke="#22252A" stroke-width="1.04742" stroke-linecap="round" stroke-linejoin="round"/>
<path d="M408.375 161.477C407.637 163.897 407.136 166.383 406.881 168.899C406.689 172.08 409.304 175.568 412.1 175.378C414.897 175.187 417.309 169.641 417.683 166.895C418.056 164.149 416.754 156.716 416.754 156.716C416.754 156.716 412.485 156.907 410.788 158.381C409.791 159.25 408.972 160.301 408.375 161.477Z" fill="#FAFAFA" stroke="#22252A" stroke-width="1.04742" stroke-linecap="round" stroke-linejoin="round"/>
<path d="M404.584 140.378C404.584 140.378 404.722 144.704 409.088 148.86C411.712 151.381 414.824 153.347 418.235 154.639C418.159 155.586 417.913 156.512 417.509 157.374C417.32 157.734 417.024 158.029 416.662 158.218C416.299 158.407 415.888 158.483 415.481 158.434H414.019C414.019 158.434 411.884 163.407 409.301 164.128C406.718 164.849 400.368 164.351 399.492 158C398.617 151.649 398.478 146.453 399.204 145.149C399.93 143.845 404.584 140.378 404.584 140.378Z" fill="#FAFAFA" stroke="#22252A" stroke-width="1.04742" stroke-linecap="round" stroke-linejoin="round"/>
<path d="M450.25 196.254C450.912 194.928 451.314 193.489 451.435 192.013C451.435 190.083 447.827 187.316 447.165 186.627C446.504 185.938 445.842 186.012 445.703 186.977C445.701 187.518 445.811 188.055 446.026 188.552C446.241 189.05 446.556 189.499 446.952 189.871C447.493 190.295 447.885 190.877 448.073 191.536C448.137 192.013 446.877 194.356 447.507 195.872C448.137 197.389 449.909 197.845 450.25 196.254Z" fill="#FAFAFA" stroke="#22252A" stroke-width="1.04742" stroke-linecap="round" stroke-linejoin="round"/>
<path d="M305.706 185.429C305.706 185.429 321.418 190.423 330.864 202.086C340.31 213.749 346.511 212.074 358.252 208.194C369.993 204.313 374.465 190.423 390.678 202.086C406.891 213.749 410.243 218.181 423.66 211.523C437.076 204.864 444.334 188.759 456.641 194.304C468.948 199.849 463.344 228.233 464.465 242.017C465.585 255.8 463.899 290.334 466.695 294.776C469.492 299.219 498.001 295.837 498.001 295.837" stroke="#22252A" stroke-width="3.14226" stroke-linecap="round" stroke-linejoin="round"/>
<path d="M335.133 166.896C335.133 166.896 332.006 161.828 327.395 163.153C322.517 164.553 319.998 171.476 318.856 175.792C317.714 180.107 316.945 184.772 314.853 188.791C314.853 188.791 305.61 188.632 300.455 187.147C296.521 185.929 292.652 184.513 288.863 182.906C288.863 182.906 287.038 180.372 285.746 179.874C284.455 179.375 281.103 178.4 280.858 179.163C280.612 179.927 284.743 182.44 284.743 182.44C284.743 182.44 277.058 183.5 276.29 184.316C275.521 185.133 281.722 187.571 281.722 187.571C281.722 187.571 284.039 188.314 289.674 186.978C289.674 186.978 310.349 200.019 314.469 201.514C318.589 203.009 320.873 203.486 323.68 198.1C326.487 192.714 335.805 179.354 337.289 173.978" fill="#8BAA36"/>
<path d="M335.133 166.896C335.133 166.896 332.006 161.828 327.395 163.153C322.517 164.553 319.998 171.476 318.856 175.792C317.714 180.107 316.945 184.772 314.853 188.791C314.853 188.791 305.61 188.632 300.455 187.147C296.521 185.929 292.652 184.513 288.863 182.906C288.863 182.906 287.038 180.372 285.746 179.874C284.455 179.375 281.103 178.4 280.858 179.163C280.612 179.927 284.743 182.44 284.743 182.44C284.743 182.44 277.058 183.5 276.29 184.316C275.521 185.133 281.722 187.571 281.722 187.571C281.722 187.571 284.039 188.314 289.674 186.978C289.674 186.978 310.349 200.019 314.469 201.514C318.589 203.009 320.873 203.486 323.68 198.1C326.487 192.714 335.805 179.354 337.289 173.978" stroke="#22252A" stroke-width="1.04742" stroke-linecap="round" stroke-linejoin="round"/>
<path d="M294.231 185.069C291.21 183.945 288.894 182.948 288.894 182.948C288.894 182.948 287.069 180.414 285.778 179.916C284.486 179.417 281.135 178.442 280.889 179.205C280.644 179.969 284.774 182.482 284.774 182.482C284.774 182.482 277.089 183.542 276.321 184.358C275.552 185.175 281.754 187.613 281.754 187.613C281.754 187.613 284.07 188.356 289.705 187.02L292.598 188.833L294.231 185.069Z" fill="#FAFAFA" stroke="#22252A" stroke-width="1.04742" stroke-linecap="round" stroke-linejoin="round"/>
<path d="M373.915 198.205C373.253 196.879 372.851 195.44 372.73 193.964C372.73 192.034 376.349 189.278 377 188.588C377.651 187.899 378.313 187.974 378.452 188.938C378.453 189.48 378.344 190.016 378.129 190.514C377.914 191.012 377.599 191.461 377.203 191.833C376.662 192.257 376.27 192.839 376.082 193.498C376.018 193.964 377.277 196.318 376.648 197.834C376.018 199.35 374.257 199.785 373.915 198.205Z" fill="#FAFAFA" stroke="#22252A" stroke-width="1.04742" stroke-linecap="round" stroke-linejoin="round"/>
<path d="M376.403 192.384C376.403 192.384 373.425 197.845 375.154 199.806C376.883 201.768 378.559 195.396 378.879 193.636C379.199 191.875 377.502 190.105 376.403 192.384Z" fill="#FAFAFA" stroke="#22252A" stroke-width="1.04742" stroke-linecap="round" stroke-linejoin="round"/>
<path d="M378.855 194.346C378.855 194.346 375.877 199.806 377.606 201.768C379.335 203.729 381.011 197.357 381.331 195.597C381.652 193.837 379.954 192.003 378.855 194.346Z" fill="#FAFAFA" stroke="#22252A" stroke-width="1.04742" stroke-linecap="round" stroke-linejoin="round"/>
<path d="M381.561 194.802C381.561 194.802 378.583 200.262 380.312 202.224C382.041 204.186 383.717 197.813 384.037 196.053C384.358 194.293 382.66 192.512 381.561 194.802Z" fill="#FAFAFA" stroke="#22252A" stroke-width="1.04742" stroke-linecap="round" stroke-linejoin="round"/>
<path d="M385.017 194.844C385.017 194.844 382.242 199.085 383.757 200.686C385.273 202.287 386.906 197.251 387.226 195.798C387.547 194.345 386.042 192.935 385.017 194.844Z" fill="#FAFAFA" stroke="#22252A" stroke-width="1.04742" stroke-linecap="round" stroke-linejoin="round"/>
<path d="M448.275 192.597C448.275 192.597 451.253 198.058 449.523 200.019C447.794 201.981 446.119 195.598 445.798 193.838C445.478 192.078 447.175 190.307 448.275 192.597Z" fill="#FAFAFA" stroke="#22252A" stroke-width="1.04742" stroke-linecap="round" stroke-linejoin="round"/>
<path d="M445.822 194.505C445.822 194.505 448.8 199.966 447.071 201.927C445.342 203.889 443.666 197.506 443.346 195.746C443.026 193.986 444.723 192.226 445.822 194.505Z" fill="#FAFAFA" stroke="#22252A" stroke-width="1.04742" stroke-linecap="round" stroke-linejoin="round"/>
<path d="M443.096 195.014C443.096 195.014 446.074 200.475 444.345 202.436C442.616 204.398 440.94 198.025 440.631 196.255C440.321 194.484 442.029 192.724 443.096 195.014Z" fill="#FAFAFA" stroke="#22252A" stroke-width="1.04742" stroke-linecap="round" stroke-linejoin="round"/>
<path d="M439.653 195.056C439.653 195.056 442.428 199.35 440.912 200.898C439.396 202.446 437.763 197.463 437.454 196.01C437.144 194.558 438.628 193.148 439.653 195.056Z" fill="#FAFAFA" stroke="#22252A" stroke-width="1.04742" stroke-linecap="round" stroke-linejoin="round"/>
<path d="M72.4321 255.471V261.493C70.3283 263.778 68.8154 266.536 68.0239 269.53C66.7324 274.45 62.6872 295.624 63.7545 296.175C64.8219 296.727 74.8657 299.006 78.0678 298.529C81.7395 297.978 84.8668 298.169 83.0203 296.154C81.1738 294.14 71.4715 288.51 71.4715 288.51C71.4715 288.51 82.1451 273.178 84.5146 267.516C86.8841 261.854 87.2684 253.096 87.2684 253.096L72.9445 252.555L72.4321 255.471Z" fill="#FAFAFA" stroke="#22252A" stroke-width="1.04742" stroke-linecap="round" stroke-linejoin="round"/>
<path d="M78.0685 298.529C81.7402 297.978 84.8676 298.169 83.0211 296.154C81.1745 294.14 71.4723 288.509 71.4723 288.509L71.1094 290.694L64.1182 289.845C63.6058 293.387 63.3817 295.984 63.7553 296.207C64.8973 296.716 74.8665 299.006 78.0685 298.529Z" fill="#22252A" stroke="#22252A" stroke-width="1.04742" stroke-linecap="round" stroke-linejoin="round"/>
<path d="M107.521 258.588L109.175 261.514C108.489 262.828 108.086 264.269 107.99 265.745C107.895 267.222 108.109 268.702 108.62 270.092C110.274 275.203 114.138 294.001 114.138 295.094C114.138 296.186 116.518 296.917 118.408 296.917C120.297 296.917 125.527 297.278 126.263 297.278C127 297.278 132.326 298.19 134.162 297.098C135.998 296.005 131.824 293.811 129.071 292.538C126.317 291.266 120.254 287.979 120.254 287.979C120.254 287.979 121.716 273.008 121.716 266.434C121.716 259.86 123.189 257.676 121.172 253.658C119.155 249.639 106.475 255.492 106.475 255.492L107.521 258.588Z" fill="#FAFAFA" stroke="#22252A" stroke-width="1.04742" stroke-linecap="round" stroke-linejoin="round"/>
<path d="M129.014 292.539C126.26 291.256 120.198 287.979 120.198 287.979L119.461 290.715L113.559 291.775C113.911 293.599 114.135 294.85 114.135 295.104C114.135 296.165 116.515 296.928 118.404 296.928C120.294 296.928 125.524 297.289 126.26 297.289C126.997 297.289 132.323 298.2 134.159 297.108C135.994 296.016 131.768 293.811 129.014 292.539Z" fill="#22252A" stroke="#22252A" stroke-width="1.04742" stroke-linecap="round" stroke-linejoin="round"/>
<path d="M97.6217 137.091C96.1814 134.646 94.5353 132.326 92.7012 130.157C90.1716 127.326 82.2411 127.485 78.7615 131.217C75.2819 134.949 76.3813 141.608 77.6942 143.495C79.007 145.382 81.6541 154.204 81.6541 154.204L82.2838 160.502L97.024 165.697L94.014 155.466C94.014 155.466 99.7244 154.405 100.194 152.635C100.664 150.864 99.2441 144.916 99.2441 144.916C99.2441 144.916 101.144 143.654 100.984 142.551C100.824 141.449 97.6217 137.091 97.6217 137.091Z" fill="#FAFAFA" stroke="#22252A" stroke-width="1.04742" stroke-linecap="round" stroke-linejoin="round"/>
<path d="M80.6602 143.878C80.6602 143.878 83.1791 145.999 84.556 143.571C85.9329 141.143 86.9789 138.768 86.9789 136.711C86.9789 134.654 81.8022 132.947 85.2498 131.568C88.6973 130.19 91.1843 133.254 92.7213 130.179C94.2583 127.105 92.86 126.776 84.5774 126.776C76.2947 126.776 72.1533 130.89 73.9038 136.032C75.3038 139.83 77.0359 143.498 79.0805 146.996L80.6602 143.878Z" fill="#22252A" stroke="#22252A" stroke-width="1.04742" stroke-linecap="round" stroke-linejoin="round"/>
<path d="M98.0829 140.729C98.0829 141.507 97.8506 142.267 97.4155 142.914C96.9804 143.561 96.3619 144.065 95.6384 144.363C94.9148 144.661 94.1186 144.738 93.3504 144.587C92.5823 144.435 91.8767 144.06 91.3229 143.51C90.7691 142.96 90.392 142.259 90.2392 141.496C90.0864 140.733 90.1648 139.942 90.4645 139.223C90.7642 138.504 91.2718 137.89 91.923 137.458C92.5742 137.026 93.3398 136.795 94.123 136.795C95.1732 136.795 96.1804 137.209 96.923 137.947C97.6657 138.685 98.0829 139.685 98.0829 140.729Z" stroke="#22252A" stroke-width="1.04742" stroke-linecap="round" stroke-linejoin="round"/>
<path d="M97.5234 137.24C97.9842 137.053 98.4771 136.955 98.975 136.954C99.7996 136.955 100.6 137.229 101.252 137.731C101.903 138.233 102.369 138.935 102.575 139.728C102.781 140.521 102.717 141.36 102.392 142.113C102.067 142.866 101.499 143.49 100.779 143.888" stroke="#22252A" stroke-width="1.04742" stroke-linecap="round" stroke-linejoin="round"/>
<path d="M90.1762 140.729L80.666 143.878" stroke="#22252A" stroke-width="1.04742" stroke-linecap="round" stroke-linejoin="round"/>
<path d="M83.4028 145.923C83.4028 145.923 81.5029 141.99 79.603 142.743C77.7031 143.495 78.653 149.677 80.5529 150.302C81.1914 150.445 81.855 150.434 82.4882 150.27C83.1214 150.106 83.7058 149.793 84.1926 149.359C84.1926 149.359 85.783 152.667 87.6829 153.6" fill="#FAFAFA"/>
<path d="M83.4028 145.923C83.4028 145.923 81.5029 141.99 79.603 142.743C77.7031 143.495 78.653 149.677 80.5529 150.302C81.1914 150.445 81.855 150.434 82.4882 150.27C83.1214 150.106 83.7058 149.793 84.1926 149.359C84.1926 149.359 85.783 152.667 87.6829 153.6" stroke="#22252A" stroke-width="1.04742" stroke-linecap="round" stroke-linejoin="round"/>
<path d="M70.9266 216.613L69.7419 231.69L66.1982 254.009C66.1982 254.009 74.4809 260.466 82.2086 260.466C89.9363 260.466 92.0603 259.491 92.0603 259.491L96.3938 236.589L100.727 260.668C100.727 260.668 109.266 259.3 114.923 257.922C118.857 256.834 122.585 255.115 125.96 252.832L114.528 223.271L112.052 208.025C112.052 208.025 99.2436 209.201 91.548 209.594C83.8523 209.986 73.6164 208.025 73.6164 208.025L70.9266 216.613Z" fill="#8BAA36" stroke="#22252A" stroke-width="1.04742" stroke-linecap="round" stroke-linejoin="round"/>
<path d="M79.0582 156.368C79.0582 156.368 97.2033 162.655 102.807 168.763C105.902 172.156 109.371 195.376 110.62 201.048C111.869 206.721 114.046 218.013 114.046 218.013C114.046 218.013 102.978 222.975 94.4175 223.155C85.8573 223.336 69.4307 219.434 69.4307 219.434C69.4307 219.434 71.3839 194.273 71.3839 182.578C71.3839 170.883 71.5654 163.249 73.5186 159.528C73.5293 159.559 76.7421 156.007 79.0582 156.368Z" fill="#22252A" stroke="#22252A" stroke-width="1.04742" stroke-linecap="round" stroke-linejoin="round"/>
<path d="M74.2721 221.256C74.2721 221.256 75.2541 237.701 74.2721 243.777C73.5826 247.696 72.3917 251.512 70.7285 255.132" stroke="#22252A" stroke-width="1.04742" stroke-linecap="round" stroke-linejoin="round"/>
<path d="M74.6826 229.092C76.1646 228.586 77.4889 227.707 78.5255 226.539C79.5622 225.372 80.2756 223.957 80.5958 222.433" stroke="#22252A" stroke-width="1.04742" stroke-linecap="round" stroke-linejoin="round"/>
<path d="M67.1797 250.828C67.1797 250.828 77.0421 259.246 92.412 256.129" stroke="#22252A" stroke-width="1.04742" stroke-linecap="round" stroke-linejoin="round"/>
<path d="M100.296 255.714C100.296 255.714 116.456 253.954 123.554 249.257" stroke="#22252A" stroke-width="1.04742" stroke-linecap="round" stroke-linejoin="round"/>
<path d="M172.584 148.755C172.584 148.755 171.026 149.9 165.593 153.844C160.16 157.789 164.44 163.747 164.44 163.747C164.44 163.747 160.555 164.352 155.367 169.77C150.18 175.188 157.684 184.487 164.696 185.939C171.709 187.392 179.906 178.772 182.361 170.777C184.816 162.782 181.571 150.727 179.938 148.235C178.305 145.744 172.584 148.755 172.584 148.755Z" fill="#22252A" stroke="#22252A" stroke-width="1.04742" stroke-linecap="round" stroke-linejoin="round"/>
<path d="M193.155 147.694C193.155 147.694 195.855 143.549 193.411 137.537C190.967 131.525 183.666 128.779 176.557 133.137C174.188 134.537 172.35 136.675 171.33 139.219C170.309 141.763 170.162 144.571 170.911 147.207C171.605 149.984 175.106 154.257 175.842 154.321C176.579 154.385 182.972 156.696 187.338 154.671C191.703 152.646 193.155 147.694 193.155 147.694Z" fill="#22252A" stroke="#22252A" stroke-width="1.04742" stroke-linecap="round" stroke-linejoin="round"/>
<path d="M161.754 287.651C161.754 287.651 166.824 295.486 175.63 296.822C184.435 298.158 176.515 290.312 175.032 289.124C173.548 287.937 162.949 285.371 161.754 287.651Z" fill="#737373" stroke="#22252A" stroke-width="1.04742" stroke-linecap="round" stroke-linejoin="round"/>
<path d="M208.662 289.665C208.662 289.665 218.342 292.029 217.595 294.107C216.848 296.186 208.96 296.027 204.349 294.839C199.738 293.651 195.405 291.881 196.003 289.962C196.6 288.043 208.662 289.665 208.662 289.665Z" fill="#737373" stroke="#22252A" stroke-width="1.04742" stroke-linecap="round" stroke-linejoin="round"/>
<path d="M181.138 163.281C181.138 163.281 168.18 165.168 165.811 169.716C163.441 174.265 166.782 199.044 166.782 199.044C166.782 199.044 161.253 211.163 161.178 218.967C161.104 226.77 164.605 240.501 164.327 243.926C164.049 247.35 160.506 286.337 160.506 287.397C160.506 288.458 167.977 290.833 178.747 292.105C189.517 293.377 210.117 289.571 210.117 289.571C210.117 289.571 209.711 266.563 210.789 252.843C211.867 239.123 210.33 226.792 207.587 221.67C204.844 216.549 192.068 198.111 192.068 198.111C192.068 198.111 198.258 186.957 198.643 182.079C199.027 177.202 197.031 174.657 192.356 169.048C190.966 167.394 189.258 166.031 187.332 165.041C185.406 164.051 183.3 163.452 181.138 163.281Z" fill="#8BAA36" stroke="#22252A" stroke-width="1.04742" stroke-linecap="round" stroke-linejoin="round"/>
<path d="M192.088 198.121C192.088 198.121 198.279 186.967 198.663 182.089C199.047 177.212 197.052 174.667 192.376 169.058C192.152 168.783 191.918 168.539 191.683 168.284L191.512 168.443C186.709 176.237 170.827 189.554 166.098 193.434C166.461 196.753 166.771 199.043 166.771 199.043C166.771 199.043 161.242 211.162 161.167 218.966C161.256 222.522 161.612 226.066 162.234 229.569C173.452 223.207 188.459 211.3 196.582 204.663C194.042 200.931 192.088 198.121 192.088 198.121Z" fill="#737373" stroke="#22252A" stroke-width="1.04742" stroke-linecap="round" stroke-linejoin="round"/>
<path d="M178.747 154.183C179.105 157.093 179.301 160.02 179.334 162.951C179.163 165.125 179.868 170.087 183.604 171.646C187.339 173.204 189.687 171.031 189.677 168.847C189.541 167.043 189.183 165.262 188.609 163.545L188.716 157.555C188.716 157.555 182.269 153.547 178.747 154.183Z" fill="#FAFAFA" stroke="#22252A" stroke-width="1.04742" stroke-linecap="round" stroke-linejoin="round"/>
<path d="M175.395 150.292C175.395 150.292 172.652 147.896 172.566 151.352C172.481 154.809 175.683 155.954 176.387 156.187C176.982 156.267 177.585 156.12 178.074 155.774C178.074 155.774 183.048 160.015 187.04 160.291C191.031 160.566 192.654 158.732 193.593 151.533C194.532 144.333 187.05 137.028 187.05 137.028C187.05 137.028 180.646 148.755 175.395 150.292Z" fill="#FAFAFA" stroke="#22252A" stroke-width="1.04742" stroke-linecap="round" stroke-linejoin="round"/>
<path d="M114.353 217.863C114.317 216.635 114.519 215.411 114.951 214.258C115.612 212.817 119.22 211.989 120.021 211.714C120.821 211.438 121.227 211.714 120.992 212.467C120.805 212.871 120.538 213.234 120.206 213.533C119.873 213.832 119.484 214.061 119.06 214.205C118.508 214.337 118.011 214.637 117.64 215.064C117.438 215.404 117.566 217.577 116.573 218.5C115.58 219.422 114.022 219.168 114.353 217.863Z" fill="#FAFAFA" stroke="#22252A" stroke-width="1.04742" stroke-linecap="round" stroke-linejoin="round"/>
<path d="M196.147 185.981C196.147 185.981 183.338 184.316 177.692 193.201C172.046 202.086 161.49 233.174 141.925 238.179C122.36 243.183 116.767 203.189 105.027 204.302C93.8406 205.363 86.0276 204.302 79.3139 216.517C75.7276 223.059 57.796 294.49 49.3212 295.222C22.3277 297.565 4.95117 296.038 4.95117 296.038" stroke="#22252A" stroke-width="3.14226" stroke-linecap="round" stroke-linejoin="round"/>
<path d="M79.895 156.877C79.895 156.877 76.9384 155.7 72.9892 158.043C69.04 160.386 58.4091 186.045 59.199 188.791C59.9888 191.537 71.2174 196.627 77.5255 198.387C83.8336 200.147 95.2649 202.31 95.2649 202.31C95.2649 202.31 98.8086 207.791 99.9933 207.982C101.716 207.959 103.433 207.764 105.117 207.399C105.117 207.399 107.251 209.159 108.073 207.198C108.895 205.236 107.283 202.702 105.512 200.741C103.74 198.779 96.2469 197.804 96.2469 197.804L75.9351 183.893L84.474 168.232" fill="#22252A"/>
<path d="M79.895 156.877C79.895 156.877 76.9384 155.7 72.9892 158.043C69.04 160.386 58.4091 186.045 59.199 188.791C59.9888 191.537 71.2174 196.627 77.5255 198.387C83.8336 200.147 95.2649 202.31 95.2649 202.31C95.2649 202.31 98.8086 207.791 99.9933 207.982C101.716 207.959 103.433 207.764 105.117 207.399C105.117 207.399 107.251 209.159 108.073 207.198C108.895 205.236 107.283 202.702 105.512 200.741C103.74 198.779 96.2469 197.804 96.2469 197.804L75.9351 183.893L84.474 168.232" stroke="#22252A" stroke-width="1.04742" stroke-linecap="round" stroke-linejoin="round"/>
<path d="M99.9929 207.972C101.716 207.948 103.432 207.753 105.116 207.388C105.116 207.388 107.251 209.149 108.073 207.187C108.895 205.225 107.283 202.691 105.511 200.73C103.739 198.768 96.2465 197.793 96.2465 197.793L75.9347 183.893L78.966 178.284C71.3771 173.587 66.3391 173.936 63.6174 174.88C60.8956 181.369 58.8249 187.519 59.1878 188.78C59.9777 191.527 71.2063 196.616 77.5144 198.376C83.8224 200.136 95.2538 202.299 95.2538 202.299C95.2538 202.299 98.8081 207.781 99.9929 207.972Z" fill="#FAFAFA" stroke="#22252A" stroke-width="1.04742" stroke-linecap="round" stroke-linejoin="round"/>
<path d="M226.939 186.415C226.074 177.159 221.602 169.557 216.265 166.535L216.095 164.648L202.155 165.931C194.31 166.652 188.898 177.35 190.062 189.819C191.225 202.288 198.526 211.799 206.371 211.024L220.311 209.742L220.129 207.854C224.825 203.952 227.803 195.672 226.939 186.415Z" fill="#22252A" stroke="#22252A" stroke-width="1.04742" stroke-linecap="round" stroke-linejoin="round"/>
<path d="M233.254 185.865C232.347 176.142 227.917 168.137 222.271 164.956L222.079 162.973L216.112 163.525C207.872 164.288 202.183 175.517 203.4 188.622C204.617 201.727 212.302 211.725 220.542 210.962L226.509 210.41L226.327 208.428C231.258 204.25 234.161 195.556 233.254 185.865Z" fill="#FAFAFA" stroke="#22252A" stroke-width="1.04742" stroke-linecap="round" stroke-linejoin="round"/>
<path d="M239.23 185.28C240.458 198.386 234.769 209.614 226.518 210.377C218.267 211.141 210.593 201.132 209.344 188.037C208.095 174.943 213.806 163.651 222.046 162.94C230.286 162.23 237.992 172.186 239.23 185.28Z" fill="#FAFAFA" stroke="#22252A" stroke-width="1.04742" stroke-linecap="round" stroke-linejoin="round"/>
<path d="M245.636 177.626L222.485 179.747C222.16 179.777 221.833 179.744 221.521 179.648C221.21 179.553 220.92 179.397 220.669 179.191C220.418 178.984 220.211 178.73 220.059 178.443C219.907 178.156 219.814 177.843 219.785 177.52C219.754 177.198 219.787 176.872 219.883 176.563C219.979 176.253 220.136 175.965 220.344 175.716C220.553 175.467 220.808 175.261 221.097 175.11C221.386 174.959 221.701 174.867 222.026 174.837L245.177 172.717C245.502 172.686 245.829 172.72 246.141 172.815C246.452 172.91 246.742 173.066 246.993 173.273C247.244 173.48 247.451 173.734 247.603 174.021C247.755 174.307 247.848 174.621 247.877 174.943C247.908 175.266 247.875 175.591 247.779 175.901C247.683 176.21 247.526 176.498 247.318 176.747C247.109 176.997 246.854 177.202 246.565 177.353C246.276 177.504 245.961 177.597 245.636 177.626Z" fill="#737373" stroke="#22252A" stroke-width="1.04742" stroke-linecap="round" stroke-linejoin="round"/>
<path d="M247.346 195.852L224.195 197.972C223.87 198.003 223.543 197.97 223.231 197.874C222.92 197.779 222.63 197.623 222.379 197.416C222.128 197.209 221.921 196.955 221.769 196.669C221.617 196.382 221.524 196.068 221.495 195.746C221.464 195.423 221.497 195.098 221.593 194.788C221.689 194.479 221.846 194.191 222.054 193.942C222.263 193.693 222.518 193.487 222.807 193.336C223.095 193.185 223.411 193.092 223.736 193.063L246.887 190.943C247.541 190.886 248.192 191.089 248.697 191.505C249.203 191.922 249.522 192.52 249.587 193.169C249.618 193.492 249.585 193.817 249.489 194.127C249.392 194.436 249.236 194.724 249.028 194.973C248.819 195.222 248.564 195.428 248.275 195.579C247.986 195.73 247.671 195.823 247.346 195.852Z" fill="#737373" stroke="#22252A" stroke-width="1.04742" stroke-linecap="round" stroke-linejoin="round"/>
<path d="M173.135 165.009C173.135 165.009 167.563 166.069 164.927 169.25C162.29 172.431 156.879 196.976 158.128 199.797C159.376 202.617 179.389 206.158 185.569 206.667C190.539 206.862 195.516 206.643 200.448 206.01C200.448 206.01 205.785 205.872 207.247 205.628C208.71 205.384 211.399 203.953 211.442 203.412C211.485 202.871 211.218 201.578 209.222 201.419C207.226 201.26 202.946 199.839 202.402 199.797C203.684 199.461 204.985 199.199 206.297 199.012C206.297 199.012 206.575 197.952 204.376 197.952C202.177 197.952 200.182 197.803 199.349 199.012C198.754 199.954 198.246 200.947 197.833 201.981C197.833 201.981 185.505 202.84 178.813 199.595C172.121 196.351 170.007 195.269 170.007 195.269L174.81 176.184" fill="#8BAA36"/>
<path d="M173.135 165.009C173.135 165.009 167.563 166.069 164.927 169.25C162.29 172.431 156.879 196.976 158.128 199.797C159.376 202.617 179.389 206.158 185.569 206.667C190.539 206.862 195.516 206.643 200.448 206.01C200.448 206.01 205.785 205.872 207.247 205.628C208.71 205.384 211.399 203.953 211.442 203.412C211.485 202.871 211.218 201.578 209.222 201.419C207.226 201.26 202.946 199.839 202.402 199.797C203.684 199.461 204.985 199.199 206.297 199.012C206.297 199.012 206.575 197.952 204.376 197.952C202.177 197.952 200.182 197.803 199.349 199.012C198.754 199.954 198.246 200.947 197.833 201.981C197.833 201.981 185.505 202.84 178.813 199.595C172.121 196.351 170.007 195.269 170.007 195.269L174.81 176.184" stroke="#22252A" stroke-width="1.04742" stroke-linecap="round" stroke-linejoin="round"/>
<path d="M207.219 205.66C208.703 205.416 211.371 203.985 211.414 203.444C211.457 202.903 211.19 201.61 209.194 201.451C207.198 201.291 202.918 199.871 202.374 199.828C203.656 199.493 204.957 199.231 206.269 199.044C206.269 199.044 206.547 197.983 204.348 197.983C202.149 197.983 200.153 197.835 199.321 199.044C198.726 199.985 198.218 200.979 197.805 202.012C197.805 202.012 185.477 202.871 178.785 199.627C172.093 196.382 169.979 195.301 169.979 195.301L172.904 183.638C169.097 182.081 165.079 181.092 160.981 180.701C158.986 188.695 157.352 198.111 158.1 199.786C159.338 202.606 179.361 206.148 185.541 206.656C190.511 206.852 195.488 206.632 200.42 205.999C200.42 205.999 205.768 205.904 207.219 205.66Z" fill="#FAFAFA" stroke="#22252A" stroke-width="1.04742" stroke-linecap="round" stroke-linejoin="round"/>
<path d="M117.052 215.806C117.052 215.806 112.932 218.87 113.562 220.896C114.191 222.921 117.628 218.775 118.482 217.556C119.336 216.336 118.664 214.492 117.052 215.806Z" fill="#FAFAFA" stroke="#22252A" stroke-width="1.04742" stroke-linecap="round" stroke-linejoin="round"/>
<path d="M117.873 218.552C117.873 218.552 113.764 221.616 114.383 223.642C115.002 225.667 118.46 221.521 119.303 220.302C120.147 219.082 119.485 217.216 117.873 218.552Z" fill="#FAFAFA" stroke="#22252A" stroke-width="1.04742" stroke-linecap="round" stroke-linejoin="round"/>
<path d="M119.825 220.333C119.825 220.333 115.715 223.398 116.345 225.423C116.975 227.448 120.412 223.302 121.265 222.083C122.119 220.864 121.447 218.997 119.825 220.333Z" fill="#FAFAFA" stroke="#22252A" stroke-width="1.04742" stroke-linecap="round" stroke-linejoin="round"/>
<path d="M121.43 221.776C121.43 221.776 117.875 224.045 118.473 225.72C119.071 227.395 122.006 224.225 122.742 223.249C123.479 222.274 122.881 220.705 121.43 221.776Z" fill="#FAFAFA" stroke="#22252A" stroke-width="1.04742" stroke-linecap="round" stroke-linejoin="round"/>
</svg>
